Henry's Crime 2010 SWESUB 720p BRRip XviD-ASPiRE
 
http://www.imdb.com/title/tt1220888/

Handling:

Henry blir dömd för ett bankrån han inte begått. När han släpps från fängelset 
bestämmer han sig för att han lika gärna kan begå brottet...

iNFO:

Genre: Kriminalare, Drama
Regi: Malcolm Venville
Medverkande: Keanu Reeves, Vera Farmiga, James Caan
Produktionsland: USA
Språk: Engelska
Text: Svenska

General:
Format                           : AVI
Format/Info                      : Audio Video Interleave
Format profile                   : OpenDML
File size                        : 2.98 GiB
Duration                         : 1h 47mn
Overall bit rate                 : 3 961 Kbps

Video:
ID                               : 0
Format                           : MPEG-4 Visual
Format profile                   : Advanced Simple@L5
Format settings, BVOP            : 1
Format settings, QPel            : No
Format settings, GMC             : No warppoints
Format settings, Matrix          : Default (H.263)
Muxing mode                      : Packed bitstream
Codec ID                         : XVID
Codec ID/Hint                    : XviD
Duration                         : 1h 47mn
Bit rate                         : 3 505 Kbps
Width                            : 1 280 pixels
Height                           : 536 pixels
Display aspect ratio             : 2.35:1
Frame rate                       : 23.976 fps
Color space                      : YUV
Chroma subsampling               : 4:2:0
Bit depth                        : 8 bits
Scan type                        : Progressive
Compression mode                 : Lossy
Bits/(Pixel*Frame)               : 0.213
Stream size                      : 2.64 GiB (88%)
Writing library                  : XviD 62

Audio:
ID                               : 1
Format                           : AC-3
Format/Info                      : Audio Coding 3
Mode extension                   : CM (complete main)
Codec ID                         : 2000
Duration                         : 1h 47mn
Bit rate mode                    : Constant
Bit rate                         : 448 Kbps
Channel(s)                       : 6 channels
Channel positions                : Front: L C R, Side: L R, LFE
Sampling rate                    : 48.0 KHz
Bit depth                        : 16 bits
Compression mode                 : Lossy
Stream size                      : 345 MiB (11%)
Alignment                        : Split accross interleaves
Interleave, duration             : 64 ms (1.53 video frames)
Interleave, preload duration     : 500 ms

ASPiRE